<svg width="87" height="28" viewBox="0 0 87 28" fill="none" xmlns="http://www.w3.org/2000/svg">
<path d="M12.5128 0.818181H7.30966L0.828125 4.92188V9.83097L6.82386 6.07244H6.97727V27H12.5128V0.818181ZM28.413 27.358C34.2937 27.358 38.4996 24.1236 38.4869 19.6491C38.4996 16.3892 36.4286 14.0625 32.5806 13.5767V13.3722C35.5082 12.848 37.5281 10.777 37.5153 7.83665C37.5281 3.70739 33.9102 0.460226 28.4897 0.460226C23.1204 0.460226 19.0806 3.60511 19.0039 8.13068H24.3093C24.3732 6.13636 26.2014 4.84517 28.4641 4.84517C30.7014 4.84517 32.1971 6.20028 32.1843 8.16903C32.1971 10.2273 30.4457 11.6207 27.9272 11.6207H25.4854V15.6861H27.9272C30.8931 15.6861 32.7468 17.169 32.734 19.2784C32.7468 21.3622 30.957 22.794 28.4258 22.794C25.984 22.794 24.1559 21.5156 24.0536 19.598H18.4798C18.5692 24.1747 22.6602 27.358 28.413 27.358ZM52.7315 27.5753C59.3153 27.5753 63.2912 22.5639 63.304 13.9347C63.3168 5.36932 59.2898 0.460226 52.7315 0.460226C46.1605 0.460226 42.1719 5.35653 42.1591 13.9347C42.1335 22.5384 46.1349 27.5625 52.7315 27.5753ZM52.7315 22.9858C49.7273 22.9858 47.7841 19.9688 47.7969 13.9347C47.8097 7.99006 49.7401 4.99858 52.7315 4.99858C55.7102 4.99858 57.6534 7.99006 57.6534 13.9347C57.6662 19.9688 55.723 22.9858 52.7315 22.9858ZM75.0749 23.0114H79.6516V16.2486H86.4144V11.6719H79.6516V4.90909H75.0749V11.6719H68.3121V16.2486H75.0749V23.0114Z" fill="#F58A07"/>
</svg>
