<svg width="62" height="28" viewBox="0 0 62 28" fill="none" xmlns="http://www.w3.org/2000/svg">
<path d="M12.5128 0.818181H7.30966L0.828125 4.92188V9.83097L6.82386 6.07244H6.97727V27H12.5128V0.818181ZM28.2979 27.358C34.1275 27.358 38.0906 23.5611 38.0778 18.2685C38.0906 13.2571 34.5877 9.65199 29.8704 9.65199C27.5692 9.65199 25.5877 10.6108 24.6673 11.902H24.5138L25.1914 5.34375H36.6332V0.818181H20.6275L19.3874 14.625L24.3093 15.5071C25.1147 14.4205 26.6744 13.7429 28.2212 13.7429C30.8548 13.7557 32.7468 15.6605 32.7468 18.4091C32.7468 21.1321 30.8931 23.0114 28.2979 23.0114C26.0991 23.0114 24.3221 21.6307 24.1942 19.598H18.8249C18.9272 24.1236 22.8775 27.358 28.2979 27.358ZM49.7624 23.0114H54.3391V16.2486H61.1019V11.6719H54.3391V4.90909H49.7624V11.6719H42.9996V16.2486H49.7624V23.0114Z" fill="#F58A07"/>
</svg>
