<svg width="46" height="28" viewBox="0 0 46 28" fill="none" xmlns="http://www.w3.org/2000/svg">
<path d="M10.7997 27.358C16.6804 27.358 20.8864 24.1236 20.8736 19.6491C20.8864 16.3892 18.8153 14.0625 14.9673 13.5767V13.3722C17.8949 12.848 19.9148 10.777 19.902 7.83665C19.9148 3.70739 16.2969 0.460226 10.8764 0.460226C5.5071 0.460226 1.46733 3.60511 1.39062 8.13068H6.69602C6.75994 6.13636 8.58807 4.84517 10.8509 4.84517C13.0881 4.84517 14.5838 6.20028 14.571 8.16903C14.5838 10.2273 12.8324 11.6207 10.3139 11.6207H7.87216V15.6861H10.3139C13.2798 15.6861 15.1335 17.169 15.1207 19.2784C15.1335 21.3622 13.3438 22.794 10.8125 22.794C8.37074 22.794 6.54261 21.5156 6.44034 19.598H0.866477C0.955966 24.1747 5.04688 27.358 10.7997 27.358ZM24.4563 22.3977H37.0231V27H42.3157V22.3977H45.5629V17.9616H42.3157V0.818181H35.3867L24.4563 18.0384V22.3977ZM37.1254 17.9616H30.0302V17.7571L36.9208 6.85227H37.1254V17.9616Z" fill="#F58A07"/>
</svg>
