<svg width="93" height="28" viewBox="0 0 93 28" fill="none" xmlns="http://www.w3.org/2000/svg">
<path d="M9.68466 27.358C15.5142 27.358 19.4773 23.5611 19.4645 18.2685C19.4773 13.2571 15.9744 9.65199 11.2571 9.65199C8.95597 9.65199 6.97443 10.6108 6.05398 11.902H5.90057L6.57812 5.34375H18.0199V0.818181H2.0142L0.774148 14.625L5.69602 15.5071C6.50142 14.4205 8.06108 13.7429 9.60795 13.7429C12.2415 13.7557 14.1335 15.6605 14.1335 18.4091C14.1335 21.1321 12.2798 23.0114 9.68466 23.0114C7.4858 23.0114 5.70881 21.6307 5.58097 19.598H0.211648C0.313921 24.1236 4.2642 27.358 9.68466 27.358ZM33.5909 27.5753C40.1747 27.5753 44.1506 22.5639 44.1634 13.9347C44.1761 5.36932 40.1491 0.460226 33.5909 0.460226C27.0199 0.460226 23.0312 5.35653 23.0185 13.9347C22.9929 22.5384 26.9943 27.5625 33.5909 27.5753ZM33.5909 22.9858C30.5866 22.9858 28.6435 19.9688 28.6562 13.9347C28.669 7.99006 30.5994 4.99858 33.5909 4.99858C36.5696 4.99858 38.5128 7.99006 38.5128 13.9347C38.5256 19.9688 36.5824 22.9858 33.5909 22.9858ZM58.3761 27.5753C64.9599 27.5753 68.9357 22.5639 68.9485 13.9347C68.9613 5.36932 64.9343 0.460226 58.3761 0.460226C51.805 0.460226 47.8164 5.35653 47.8036 13.9347C47.7781 22.5384 51.7795 27.5625 58.3761 27.5753ZM58.3761 22.9858C55.3718 22.9858 53.4286 19.9688 53.4414 13.9347C53.4542 7.99006 55.3846 4.99858 58.3761 4.99858C61.3548 4.99858 63.2979 7.99006 63.2979 13.9347C63.3107 19.9688 61.3675 22.9858 58.3761 22.9858ZM80.7195 23.0114H85.2962V16.2486H92.059V11.6719H85.2962V4.90909H80.7195V11.6719H73.9567V16.2486H80.7195V23.0114Z" fill="#F58A07"/>
</svg>
